{
    "asset" : {
        "generator" : "Khronos glTF Blender I/O v1.3.48",
        "version" : "2.0"
    },
    "scene" : 0,
    "scenes" : [
        {
            "name" : "Scene",
            "nodes" : [
                0,
                1,
                2
            ]
        }
    ],
    "nodes" : [
        {
            "name" : "Light",
            "rotation" : [
                0.16907575726509094,
                0.7558803558349609,
                -0.27217137813568115,
                0.570947527885437
            ],
            "translation" : [
                4.076245307922363,
                5.903861999511719,
                -1.0054539442062378
            ]
        },
        {
            "name" : "Camera",
            "rotation" : [
                0.483536034822464,
                0.33687159419059753,
                -0.20870360732078552,
                0.7804827094078064
            ],
            "translation" : [
                7.358891487121582,
                4.958309173583984,
                6.925790786743164
            ]
        },
        {
            "mesh" : 0,
            "name" : "Curve.002",
            "rotation" : [
                0.00032078081858344376,
                -0.7076359987258911,
                -0.7065770030021667,
                -0.000321261613862589
            ],
            "scale" : [
                8.891036987304688,
                8.891036987304688,
                8.891036987304688
            ],
            "translation" : [
                -0.014831975102424622,
                0.037867702543735504,
                -0.0006307500880211592
            ]
        }
    ],
    "materials" : [
        {
            "doubleSided" : true,
            "name" : "SVGMat",
            "pbrMetallicRoughness" : {}
        }
    ],
    "meshes" : [
        {
            "name" : "Curve.001",
            "primitives" : [
                {
                    "attributes" : {
                        "POSITION" : 0,
                        "NORMAL" : 1,
                        "TEXCOORD_0" : 2
                    },
                    "indices" : 3,
                    "material" : 0
                }
            ]
        }
    ],
    "accessors" : [
        {
            "bufferView" : 0,
            "componentType" : 5126,
            "count" : 11552,
            "max" : [
                0.06225074082612991,
                0.0016346154734492302,
                0.06172063946723938
            ],
            "min" : [
                -0.06662020087242126,
                -0.0016346154734492302,
                -0.06991656124591827
            ],
            "type" : "VEC3"
        },
        {
            "bufferView" : 1,
            "componentType" : 5126,
            "count" : 11552,
            "type" : "VEC3"
        },
        {
            "bufferView" : 2,
            "componentType" : 5126,
            "count" : 11552,
            "type" : "VEC2"
        },
        {
            "bufferView" : 3,
            "componentType" : 5123,
            "count" : 68856,
            "type" : "SCALAR"
        }
    ],
    "bufferViews" : [
        {
            "buffer" : 0,
            "byteLength" : 138624,
            "byteOffset" : 0
        },
        {
            "buffer" : 0,
            "byteLength" : 138624,
            "byteOffset" : 138624
        },
        {
            "buffer" : 0,
            "byteLength" : 92416,
            "byteOffset" : 277248
        },
        {
            "buffer" : 0,
            "byteLength" : 137712,
            "byteOffset" : 369664
        }
    ],
    "buffers" : [
        {
            "byteLength" : 507376,
            "uri" : "data:application/octet-stream;base64,"
        }
    ]
}
