{
    "asset" : {
        "generator" : "Khronos glTF Blender I/O v1.3.48",
        "version" : "2.0"
    },
    "scene" : 0,
    "scenes" : [
        {
            "name" : "Scene",
            "nodes" : [
                0,
                1,
                2
            ]
        }
    ],
    "nodes" : [
        {
            "name" : "Light",
            "rotation" : [
                0.16907575726509094,
                0.7558803558349609,
                -0.27217137813568115,
                0.570947527885437
            ],
            "translation" : [
                4.076245307922363,
                5.903861999511719,
                -1.0054539442062378
            ]
        },
        {
            "name" : "Camera",
            "rotation" : [
                0.483536034822464,
                0.33687159419059753,
                -0.20870360732078552,
                0.7804827094078064
            ],
            "translation" : [
                7.358891487121582,
                4.958309173583984,
                6.925790786743164
            ]
        },
        {
            "mesh" : 0,
            "name" : "Curve.003",
            "rotation" : [
                0,
                -0.9999997615814209,
                0,
                -0.0007253129733726382
            ],
            "scale" : [
                2.4022481441497803,
                2.4022481441497803,
                2.4022481441497803
            ],
            "translation" : [
                -0.04203023761510849,
                0,
                1.0505986213684082
            ]
        }
    ],
    "materials" : [
        {
            "doubleSided" : true,
            "name" : "SVGMat.002",
            "pbrMetallicRoughness" : {}
        }
    ],
    "meshes" : [
        {
            "name" : "Curve.016",
            "primitives" : [
                {
                    "attributes" : {
                        "POSITION" : 0,
                        "NORMAL" : 1,
                        "TEXCOORD_0" : 2
                    },
                    "indices" : 3,
                    "material" : 0
                }
            ]
        }
    ],
    "accessors" : [
        {
            "bufferView" : 0,
            "componentType" : 5126,
            "count" : 12482,
            "max" : [
                0.45573917031288147,
                0,
                0.9138346910476685
            ],
            "min" : [
                -0.492450088262558,
                0,
                -0.03435470908880234
            ],
            "type" : "VEC3"
        },
        {
            "bufferView" : 1,
            "componentType" : 5126,
            "count" : 12482,
            "type" : "VEC3"
        },
        {
            "bufferView" : 2,
            "componentType" : 5126,
            "count" : 12482,
            "type" : "VEC2"
        },
        {
            "bufferView" : 3,
            "componentType" : 5123,
            "count" : 28332,
            "type" : "SCALAR"
        }
    ],
    "bufferViews" : [
        {
            "buffer" : 0,
            "byteLength" : 149784,
            "byteOffset" : 0
        },
        {
            "buffer" : 0,
            "byteLength" : 149784,
            "byteOffset" : 149784
        },
        {
            "buffer" : 0,
            "byteLength" : 99856,
            "byteOffset" : 299568
        },
        {
            "buffer" : 0,
            "byteLength" : 56664,
            "byteOffset" : 399424
        }
    ],
    "buffers" : [
        {
            "byteLength" : 456088,
            "uri" : "data:application/octet-stream;base64,"
        }
    ]
}
