{
    "asset" : {
        "generator" : "Khronos glTF Blender I/O v1.3.48",
        "version" : "2.0"
    },
    "scene" : 0,
    "scenes" : [
        {
            "name" : "Scene",
            "nodes" : [
                0,
                1,
                2
            ]
        }
    ],
    "nodes" : [
        {
            "name" : "Light",
            "rotation" : [
                0.16907575726509094,
                0.7558803558349609,
                -0.27217137813568115,
                0.570947527885437
            ],
            "translation" : [
                4.076245307922363,
                5.903861999511719,
                -1.0054539442062378
            ]
        },
        {
            "name" : "Camera",
            "rotation" : [
                0.483536034822464,
                0.33687159419059753,
                -0.20870360732078552,
                0.7804827094078064
            ],
            "translation" : [
                7.358891487121582,
                4.958309173583984,
                6.925790786743164
            ]
        },
        {
            "mesh" : 0,
            "name" : "Curve.001",
            "rotation" : [
                0.7097811698913574,
                0,
                0,
                0.7044222354888916
            ],
            "scale" : [
                35.37855529785156,
                35.37855529785156,
                35.37855529785156
            ],
            "translation" : [
                0.24224750697612762,
                0.03328925371170044,
                -0.007459539920091629
            ]
        }
    ],
    "materials" : [
        {
            "doubleSided" : true,
            "emissiveFactor" : [
                0.20791955292224884,
                0.20791955292224884,
                0.20791955292224884
            ],
            "name" : "Material.001",
            "pbrMetallicRoughness" : {
                "baseColorFactor" : [
                    0.800000011920929,
                    0.800000011920929,
                    0.800000011920929,
                    1
                ],
                "metallicFactor" : 1,
                "roughnessFactor" : 0
            }
        }
    ],
    "meshes" : [
        {
            "name" : "Curve.001",
            "primitives" : [
                {
                    "attributes" : {
                        "POSITION" : 0,
                        "NORMAL" : 1,
                        "TEXCOORD_0" : 2
                    },
                    "indices" : 3,
                    "material" : 0
                }
            ]
        }
    ],
    "accessors" : [
        {
            "bufferView" : 0,
            "componentType" : 5126,
            "count" : 10326,
            "max" : [
                0.06480513513088226,
                0.004990055691450834,
                0.021208947524428368
            ],
            "min" : [
                -0.07270479202270508,
                -0.005009944085031748,
                -0.02033219486474991
            ],
            "type" : "VEC3"
        },
        {
            "bufferView" : 1,
            "componentType" : 5126,
            "count" : 10326,
            "type" : "VEC3"
        },
        {
            "bufferView" : 2,
            "componentType" : 5126,
            "count" : 10326,
            "type" : "VEC2"
        },
        {
            "bufferView" : 3,
            "componentType" : 5123,
            "count" : 61896,
            "type" : "SCALAR"
        }
    ],
    "bufferViews" : [
        {
            "buffer" : 0,
            "byteLength" : 123912,
            "byteOffset" : 0
        },
        {
            "buffer" : 0,
            "byteLength" : 123912,
            "byteOffset" : 123912
        },
        {
            "buffer" : 0,
            "byteLength" : 82608,
            "byteOffset" : 247824
        },
        {
            "buffer" : 0,
            "byteLength" : 123792,
            "byteOffset" : 330432
        }
    ],
    "buffers" : [
        {
            "byteLength" : 454224,
            "uri" : "data:application/octet-stream;base64,"
        }
    ]
}
